<svg width="1194" height="240" viewBox="0 0 1194 240" fill="none" xmlns="http://www.w3.org/2000/svg">
<rect width="1194" height="240" fill="#3A1078"/>
<path d="M90.65 63.95H100.05C99.55 66.3 96.5 67 91.5 67C83.85 67 82.5 63.2 82.5 58.95C82.5 54.75 83.8 51.5 91.5 51.5C97 51.5 99.55 53.15 100.05 54.95H113.35C112.8 45.4 105.5 40.5 91.5 40.5C77.1 40.5 69.5 46.3 69.5 58.45C69.5 70.65 77.1 76.5 90 76.5C97.35 76.5 101.95 74.4 104.9 70.95L105.85 76H113.35V56.95H90.65V63.95ZM151.873 51V41H114.873V76H151.873V66H127.873V62.75H151.873V54.25H127.873V51H151.873ZM195.85 41H152.85V52H167.85V76H180.85V52H195.85V41ZM230.363 41H217.363V76H230.363V41ZM274.854 41H231.854V52H246.854V76H259.854V52H274.854V41ZM328.467 41V61.65L313.367 41H296.367V76H309.367V55.35L324.467 76H341.467V41H328.467ZM364.498 76.5C379.848 76.5 386.498 70.6 386.498 58.45C386.498 46.35 379.848 40.5 364.498 40.5C349.098 40.5 342.498 46.3 342.498 58.45C342.498 70.65 349.098 76.5 364.498 76.5ZM364.498 65.5C356.848 65.5 355.498 62.2 355.498 58.45C355.498 54.75 356.798 51.5 364.498 51.5C372.198 51.5 373.498 54.8 373.498 58.45C373.498 62.15 372.148 65.5 364.498 65.5ZM443.689 41L436.439 65.7L428.839 41H413.339L405.739 65.7L398.489 41H384.539L396.039 76H415.339L421.089 55.85L426.839 76H446.139L457.639 41H443.689Z" fill="#8BD0ED"/>
<path d="M77 154V133.648H69.128V131.6H87.24V133.648H79.368V154H77ZM95.929 154.16C94.1797 154.16 92.6437 153.797 91.321 153.072C89.9983 152.325 88.9637 151.312 88.217 150.032C87.4703 148.731 87.097 147.248 87.097 145.584C87.097 143.92 87.449 142.448 88.153 141.168C88.8783 139.888 89.8597 138.885 91.097 138.16C92.3557 137.413 93.7637 137.04 95.321 137.04C96.8997 137.04 98.297 137.403 99.513 138.128C100.75 138.832 101.721 139.835 102.425 141.136C103.129 142.416 103.481 143.899 103.481 145.584C103.481 145.691 103.47 145.808 103.449 145.936C103.449 146.043 103.449 146.16 103.449 146.288H88.825V144.592H102.233L101.337 145.264C101.337 144.048 101.07 142.971 100.537 142.032C100.025 141.072 99.321 140.325 98.425 139.792C97.529 139.259 96.4943 138.992 95.321 138.992C94.169 138.992 93.1343 139.259 92.217 139.792C91.2997 140.325 90.585 141.072 90.073 142.032C89.561 142.992 89.305 144.091 89.305 145.328V145.68C89.305 146.96 89.5823 148.091 90.137 149.072C90.713 150.032 91.5023 150.789 92.505 151.344C93.529 151.877 94.6917 152.144 95.993 152.144C97.017 152.144 97.9663 151.963 98.841 151.6C99.737 151.237 100.505 150.683 101.145 149.936L102.425 151.408C101.678 152.304 100.74 152.987 99.609 153.456C98.4997 153.925 97.273 154.16 95.929 154.16ZM108.106 154V137.2H110.282V141.776L110.058 140.976C110.527 139.696 111.316 138.725 112.426 138.064C113.535 137.381 114.911 137.04 116.554 137.04V139.248C116.468 139.248 116.383 139.248 116.298 139.248C116.212 139.227 116.127 139.216 116.042 139.216C114.271 139.216 112.884 139.76 111.882 140.848C110.879 141.915 110.378 143.44 110.378 145.424V154H108.106ZM125.399 154.16C124.012 154.16 122.7 153.968 121.463 153.584C120.225 153.179 119.255 152.677 118.551 152.08L119.575 150.288C120.257 150.8 121.132 151.248 122.199 151.632C123.265 151.995 124.385 152.176 125.559 152.176C127.159 152.176 128.311 151.931 129.015 151.44C129.719 150.928 130.071 150.256 130.071 149.424C130.071 148.805 129.868 148.325 129.463 147.984C129.079 147.621 128.567 147.355 127.927 147.184C127.287 146.992 126.572 146.832 125.783 146.704C124.993 146.576 124.204 146.427 123.415 146.256C122.647 146.085 121.943 145.84 121.303 145.52C120.663 145.179 120.14 144.72 119.735 144.144C119.351 143.568 119.159 142.8 119.159 141.84C119.159 140.923 119.415 140.101 119.927 139.376C120.439 138.651 121.185 138.085 122.167 137.68C123.169 137.253 124.385 137.04 125.815 137.04C126.903 137.04 127.991 137.189 129.079 137.488C130.167 137.765 131.063 138.139 131.767 138.608L130.775 140.432C130.028 139.92 129.228 139.557 128.375 139.344C127.521 139.109 126.668 138.992 125.815 138.992C124.3 138.992 123.18 139.259 122.455 139.792C121.751 140.304 121.399 140.965 121.399 141.776C121.399 142.416 121.591 142.917 121.975 143.28C122.38 143.643 122.903 143.931 123.543 144.144C124.204 144.336 124.919 144.496 125.687 144.624C126.476 144.752 127.255 144.912 128.023 145.104C128.812 145.275 129.527 145.52 130.167 145.84C130.828 146.139 131.351 146.576 131.735 147.152C132.14 147.707 132.343 148.443 132.343 149.36C132.343 150.341 132.065 151.195 131.511 151.92C130.977 152.624 130.188 153.179 129.143 153.584C128.119 153.968 126.871 154.16 125.399 154.16ZM143.648 154.16C141.898 154.16 140.362 153.797 139.04 153.072C137.717 152.325 136.682 151.312 135.936 150.032C135.189 148.731 134.816 147.248 134.816 145.584C134.816 143.92 135.168 142.448 135.872 141.168C136.597 139.888 137.578 138.885 138.816 138.16C140.074 137.413 141.482 137.04 143.04 137.04C144.618 137.04 146.016 137.403 147.232 138.128C148.469 138.832 149.44 139.835 150.144 141.136C150.848 142.416 151.2 143.899 151.2 145.584C151.2 145.691 151.189 145.808 151.168 145.936C151.168 146.043 151.168 146.16 151.168 146.288H136.544V144.592H149.952L149.056 145.264C149.056 144.048 148.789 142.971 148.256 142.032C147.744 141.072 147.04 140.325 146.144 139.792C145.248 139.259 144.213 138.992 143.04 138.992C141.888 138.992 140.853 139.259 139.936 139.792C139.018 140.325 138.304 141.072 137.792 142.032C137.28 142.992 137.024 144.091 137.024 145.328V145.68C137.024 146.96 137.301 148.091 137.856 149.072C138.432 150.032 139.221 150.789 140.224 151.344C141.248 151.877 142.41 152.144 143.712 152.144C144.736 152.144 145.685 151.963 146.56 151.6C147.456 151.237 148.224 150.683 148.864 149.936L150.144 151.408C149.397 152.304 148.458 152.987 147.328 153.456C146.218 153.925 144.992 154.16 143.648 154.16ZM162.512 154.16C160.912 154.16 159.472 153.797 158.192 153.072C156.934 152.347 155.942 151.344 155.216 150.064C154.491 148.763 154.128 147.269 154.128 145.584C154.128 143.877 154.491 142.384 155.216 141.104C155.942 139.824 156.934 138.832 158.192 138.128C159.472 137.403 160.912 137.04 162.512 137.04C163.984 137.04 165.296 137.371 166.448 138.032C167.622 138.693 168.55 139.664 169.232 140.944C169.936 142.203 170.288 143.749 170.288 145.584C170.288 147.397 169.947 148.944 169.264 150.224C168.582 151.504 167.654 152.485 166.48 153.168C165.328 153.829 164.006 154.16 162.512 154.16ZM162.672 152.144C163.867 152.144 164.934 151.877 165.872 151.344C166.832 150.789 167.579 150.021 168.112 149.04C168.667 148.037 168.944 146.885 168.944 145.584C168.944 144.261 168.667 143.109 168.112 142.128C167.579 141.147 166.832 140.389 165.872 139.856C164.934 139.301 163.867 139.024 162.672 139.024C161.499 139.024 160.443 139.301 159.504 139.856C158.566 140.389 157.819 141.147 157.264 142.128C156.71 143.109 156.432 144.261 156.432 145.584C156.432 146.885 156.71 148.037 157.264 149.04C157.819 150.021 158.566 150.789 159.504 151.344C160.443 151.877 161.499 152.144 162.672 152.144ZM169.008 154V148.944L169.232 145.552L168.912 142.16V130.256H171.184V154H169.008ZM177.512 154V137.2H179.784V154H177.512ZM178.664 133.488C178.194 133.488 177.8 133.328 177.48 133.008C177.16 132.688 177 132.304 177 131.856C177 131.408 177.16 131.035 177.48 130.736C177.8 130.416 178.194 130.256 178.664 130.256C179.133 130.256 179.528 130.405 179.848 130.704C180.168 131.003 180.328 131.376 180.328 131.824C180.328 132.293 180.168 132.688 179.848 133.008C179.549 133.328 179.154 133.488 178.664 133.488ZM196.634 154V150.288L196.538 149.68V143.472C196.538 142.043 196.132 140.944 195.322 140.176C194.532 139.408 193.348 139.024 191.77 139.024C190.682 139.024 189.647 139.205 188.666 139.568C187.684 139.931 186.852 140.411 186.17 141.008L185.146 139.312C185.999 138.587 187.023 138.032 188.218 137.648C189.412 137.243 190.671 137.04 191.994 137.04C194.17 137.04 195.844 137.584 197.018 138.672C198.212 139.739 198.81 141.371 198.81 143.568V154H196.634ZM190.842 154.16C189.583 154.16 188.484 153.957 187.546 153.552C186.628 153.125 185.924 152.549 185.434 151.824C184.943 151.077 184.698 150.224 184.698 149.264C184.698 148.389 184.9 147.6 185.306 146.896C185.732 146.171 186.415 145.595 187.354 145.168C188.314 144.72 189.594 144.496 191.194 144.496H196.986V146.192H191.258C189.636 146.192 188.506 146.48 187.866 147.056C187.247 147.632 186.938 148.347 186.938 149.2C186.938 150.16 187.311 150.928 188.058 151.504C188.804 152.08 189.85 152.368 191.194 152.368C192.474 152.368 193.572 152.08 194.49 151.504C195.428 150.907 196.111 150.053 196.538 148.944L197.05 150.512C196.623 151.621 195.876 152.507 194.81 153.168C193.764 153.829 192.442 154.16 190.842 154.16ZM213.836 154V131.6H223.5C225.996 131.6 227.926 132.101 229.292 133.104C230.678 134.107 231.372 135.525 231.372 137.36C231.372 138.576 231.084 139.6 230.508 140.432C229.953 141.264 229.185 141.893 228.204 142.32C227.244 142.747 226.188 142.96 225.036 142.96L225.58 142.192C227.009 142.192 228.236 142.416 229.26 142.864C230.305 143.291 231.116 143.941 231.692 144.816C232.268 145.669 232.556 146.736 232.556 148.016C232.556 149.915 231.852 151.387 230.444 152.432C229.057 153.477 226.956 154 224.14 154H213.836ZM216.204 152.048H224.108C226.07 152.048 227.574 151.717 228.62 151.056C229.665 150.373 230.188 149.296 230.188 147.824C230.188 146.373 229.665 145.317 228.62 144.656C227.574 143.973 226.07 143.632 224.108 143.632H215.948V141.68H223.34C225.132 141.68 226.518 141.339 227.5 140.656C228.502 139.973 229.003 138.96 229.003 137.616C229.003 136.251 228.502 135.237 227.5 134.576C226.518 133.893 225.132 133.552 223.34 133.552H216.204V152.048ZM248.009 154V150.288L247.913 149.68V143.472C247.913 142.043 247.507 140.944 246.697 140.176C245.907 139.408 244.723 139.024 243.145 139.024C242.057 139.024 241.022 139.205 240.041 139.568C239.059 139.931 238.227 140.411 237.545 141.008L236.521 139.312C237.374 138.587 238.398 138.032 239.593 137.648C240.787 137.243 242.046 137.04 243.369 137.04C245.545 137.04 247.219 137.584 248.393 138.672C249.587 139.739 250.185 141.371 250.185 143.568V154H248.009ZM242.217 154.16C240.958 154.16 239.859 153.957 238.921 153.552C238.003 153.125 237.299 152.549 236.809 151.824C236.318 151.077 236.073 150.224 236.073 149.264C236.073 148.389 236.275 147.6 236.681 146.896C237.107 146.171 237.79 145.595 238.729 145.168C239.689 144.72 240.969 144.496 242.569 144.496H248.361V146.192H242.633C241.011 146.192 239.881 146.48 239.241 147.056C238.622 147.632 238.312 148.347 238.312 149.2C238.312 150.16 238.686 150.928 239.433 151.504C240.179 152.08 241.225 152.368 242.569 152.368C243.849 152.368 244.947 152.08 245.865 151.504C246.803 150.907 247.486 150.053 247.913 148.944L248.425 150.512C247.998 151.621 247.251 152.507 246.185 153.168C245.139 153.829 243.817 154.16 242.217 154.16ZM264.932 137.04C266.297 137.04 267.492 137.307 268.516 137.84C269.561 138.352 270.372 139.141 270.948 140.208C271.545 141.275 271.844 142.619 271.844 144.24V154H269.572V144.464C269.572 142.693 269.124 141.36 268.228 140.464C267.353 139.547 266.116 139.088 264.516 139.088C263.321 139.088 262.276 139.333 261.38 139.824C260.505 140.293 259.822 140.987 259.332 141.904C258.862 142.8 258.628 143.888 258.628 145.168V154H256.356V137.2H258.532V141.808L258.18 140.944C258.713 139.728 259.566 138.779 260.74 138.096C261.913 137.392 263.31 137.04 264.932 137.04ZM277.796 160.368C277.007 160.368 276.249 160.24 275.524 159.984C274.82 159.728 274.212 159.344 273.7 158.832L274.756 157.136C275.183 157.541 275.641 157.851 276.132 158.064C276.644 158.299 277.209 158.416 277.828 158.416C278.575 158.416 279.215 158.203 279.748 157.776C280.303 157.371 280.825 156.645 281.316 155.6L282.404 153.136L282.66 152.784L289.572 137.2H291.812L283.396 156.016C282.927 157.104 282.404 157.968 281.828 158.608C281.273 159.248 280.665 159.696 280.004 159.952C279.343 160.229 278.607 160.368 277.796 160.368ZM282.276 154.48L274.532 137.2H276.9L283.748 152.624L282.276 154.48ZM305.04 154V150.288L304.944 149.68V143.472C304.944 142.043 304.538 140.944 303.728 140.176C302.938 139.408 301.754 139.024 300.176 139.024C299.088 139.024 298.053 139.205 297.072 139.568C296.09 139.931 295.258 140.411 294.576 141.008L293.552 139.312C294.405 138.587 295.429 138.032 296.624 137.648C297.818 137.243 299.077 137.04 300.4 137.04C302.576 137.04 304.25 137.584 305.424 138.672C306.618 139.739 307.216 141.371 307.216 143.568V154H305.04ZM299.248 154.16C297.989 154.16 296.89 153.957 295.952 153.552C295.034 153.125 294.33 152.549 293.84 151.824C293.349 151.077 293.104 150.224 293.104 149.264C293.104 148.389 293.306 147.6 293.712 146.896C294.138 146.171 294.821 145.595 295.76 145.168C296.72 144.72 298 144.496 299.6 144.496H305.392V146.192H299.664C298.042 146.192 296.912 146.48 296.272 147.056C295.653 147.632 295.344 148.347 295.344 149.2C295.344 150.16 295.717 150.928 296.464 151.504C297.21 152.08 298.256 152.368 299.6 152.368C300.88 152.368 301.978 152.08 302.896 151.504C303.834 150.907 304.517 150.053 304.944 148.944L305.456 150.512C305.029 151.621 304.282 152.507 303.216 153.168C302.17 153.829 300.848 154.16 299.248 154.16ZM315.179 149.648L315.243 146.736L325.707 137.2H328.491L321.099 144.272L319.819 145.36L315.179 149.648ZM313.387 154V130.256H315.659V154H313.387ZM326.411 154L319.403 145.264L320.875 143.504L329.195 154H326.411ZM343.573 142.448H355.413V144.496H343.573V142.448ZM343.829 154H341.461V131.6H356.821V133.648H343.829V154ZM361.231 154V137.2H363.503V154H361.231ZM362.383 133.488C361.913 133.488 361.519 133.328 361.199 133.008C360.879 132.688 360.719 132.304 360.719 131.856C360.719 131.408 360.879 131.035 361.199 130.736C361.519 130.416 361.913 130.256 362.383 130.256C362.852 130.256 363.247 130.405 363.567 130.704C363.887 131.003 364.047 131.376 364.047 131.824C364.047 132.293 363.887 132.688 363.567 133.008C363.268 133.328 362.873 133.488 362.383 133.488ZM375.136 154.16C373.558 154.16 372.342 153.733 371.488 152.88C370.635 152.027 370.208 150.821 370.208 149.264V133.488H372.48V149.136C372.48 150.117 372.726 150.875 373.216 151.408C373.728 151.941 374.454 152.208 375.392 152.208C376.395 152.208 377.227 151.92 377.888 151.344L378.688 152.976C378.24 153.381 377.696 153.68 377.056 153.872C376.438 154.064 375.798 154.16 375.136 154.16ZM367.2 139.088V137.2H377.6V139.088H367.2ZM389.768 154.16C388.339 154.16 387.091 153.893 386.024 153.36C384.958 152.827 384.126 152.027 383.528 150.96C382.952 149.893 382.664 148.56 382.664 146.96V137.2H384.936V146.704C384.936 148.496 385.374 149.851 386.248 150.768C387.144 151.664 388.392 152.112 389.992 152.112C391.166 152.112 392.179 151.877 393.032 151.408C393.907 150.917 394.568 150.213 395.016 149.296C395.486 148.379 395.72 147.28 395.72 146V137.2H397.992V154H395.816V149.392L396.168 150.224C395.635 151.461 394.803 152.432 393.672 153.136C392.563 153.819 391.262 154.16 389.768 154.16ZM404.324 154V137.2H406.5V141.776L406.276 140.976C406.746 139.696 407.535 138.725 408.644 138.064C409.754 137.381 411.13 137.04 412.772 137.04V139.248C412.687 139.248 412.602 139.248 412.516 139.248C412.431 139.227 412.346 139.216 412.26 139.216C410.49 139.216 409.103 139.76 408.1 140.848C407.098 141.915 406.596 143.44 406.596 145.424V154H404.324ZM422.439 154L432.679 131.6H435.015L445.255 154H442.759L433.351 132.976H434.311L424.903 154H422.439ZM426.471 148.016L427.175 146.096H440.199L440.903 148.016H426.471ZM457.057 137.04C458.422 137.04 459.617 137.307 460.641 137.84C461.686 138.352 462.497 139.141 463.073 140.208C463.67 141.275 463.969 142.619 463.969 144.24V154H461.697V144.464C461.697 142.693 461.249 141.36 460.353 140.464C459.478 139.547 458.241 139.088 456.641 139.088C455.446 139.088 454.401 139.333 453.505 139.824C452.63 140.293 451.947 140.987 451.457 141.904C450.987 142.8 450.753 143.888 450.753 145.168V154H448.481V137.2H450.657V141.808L450.305 140.944C450.838 139.728 451.691 138.779 452.865 138.096C454.038 137.392 455.435 137.04 457.057 137.04ZM476.794 154.16C475.194 154.16 473.754 153.797 472.474 153.072C471.215 152.347 470.223 151.344 469.498 150.064C468.772 148.763 468.41 147.269 468.41 145.584C468.41 143.877 468.772 142.384 469.498 141.104C470.223 139.824 471.215 138.832 472.474 138.128C473.754 137.403 475.194 137.04 476.794 137.04C478.266 137.04 479.578 137.371 480.73 138.032C481.903 138.693 482.831 139.664 483.514 140.944C484.218 142.203 484.569 143.749 484.569 145.584C484.569 147.397 484.228 148.944 483.546 150.224C482.863 151.504 481.935 152.485 480.762 153.168C479.61 153.829 478.287 154.16 476.794 154.16ZM476.954 152.144C478.148 152.144 479.215 151.877 480.154 151.344C481.114 150.789 481.86 150.021 482.394 149.04C482.948 148.037 483.226 146.885 483.226 145.584C483.226 144.261 482.948 143.109 482.394 142.128C481.86 141.147 481.114 140.389 480.154 139.856C479.215 139.301 478.148 139.024 476.954 139.024C475.78 139.024 474.724 139.301 473.786 139.856C472.847 140.389 472.1 141.147 471.546 142.128C470.991 143.109 470.714 144.261 470.714 145.584C470.714 146.885 470.991 148.037 471.546 149.04C472.1 150.021 472.847 150.789 473.786 151.344C474.724 151.877 475.78 152.144 476.954 152.144ZM483.29 154V148.944L483.514 145.552L483.194 142.16V130.256H485.466V154H483.29ZM502.321 154V150.288L502.225 149.68V143.472C502.225 142.043 501.82 140.944 501.009 140.176C500.22 139.408 499.036 139.024 497.457 139.024C496.369 139.024 495.334 139.205 494.353 139.568C493.372 139.931 492.54 140.411 491.857 141.008L490.833 139.312C491.686 138.587 492.71 138.032 493.905 137.648C495.1 137.243 496.358 137.04 497.681 137.04C499.857 137.04 501.532 137.584 502.705 138.672C503.9 139.739 504.497 141.371 504.497 143.568V154H502.321ZM496.529 154.16C495.27 154.16 494.172 153.957 493.233 153.552C492.316 153.125 491.612 152.549 491.121 151.824C490.63 151.077 490.385 150.224 490.385 149.264C490.385 148.389 490.588 147.6 490.993 146.896C491.42 146.171 492.102 145.595 493.041 145.168C494.001 144.72 495.281 144.496 496.881 144.496H502.673V146.192H496.945C495.324 146.192 494.193 146.48 493.553 147.056C492.934 147.632 492.625 148.347 492.625 149.2C492.625 150.16 492.998 150.928 493.745 151.504C494.492 152.08 495.537 152.368 496.881 152.368C498.161 152.368 499.26 152.08 500.177 151.504C501.116 150.907 501.798 150.053 502.225 148.944L502.737 150.512C502.31 151.621 501.564 152.507 500.497 153.168C499.452 153.829 498.129 154.16 496.529 154.16ZM510.668 154V130.256H512.94V154H510.668ZM529.79 154V150.288L529.694 149.68V143.472C529.694 142.043 529.288 140.944 528.478 140.176C527.688 139.408 526.504 139.024 524.926 139.024C523.838 139.024 522.803 139.205 521.822 139.568C520.84 139.931 520.008 140.411 519.326 141.008L518.302 139.312C519.155 138.587 520.179 138.032 521.374 137.648C522.568 137.243 523.827 137.04 525.15 137.04C527.326 137.04 529 137.584 530.174 138.672C531.368 139.739 531.966 141.371 531.966 143.568V154H529.79ZM523.998 154.16C522.739 154.16 521.64 153.957 520.702 153.552C519.784 153.125 519.08 152.549 518.59 151.824C518.099 151.077 517.854 150.224 517.854 149.264C517.854 148.389 518.056 147.6 518.462 146.896C518.888 146.171 519.571 145.595 520.51 145.168C521.47 144.72 522.75 144.496 524.35 144.496H530.142V146.192H524.414C522.792 146.192 521.662 146.48 521.022 147.056C520.403 147.632 520.094 148.347 520.094 149.2C520.094 150.16 520.467 150.928 521.214 151.504C521.96 152.08 523.006 152.368 524.35 152.368C525.63 152.368 526.728 152.08 527.646 151.504C528.584 150.907 529.267 150.053 529.694 148.944L530.206 150.512C529.779 151.621 529.032 152.507 527.966 153.168C526.92 153.829 525.598 154.16 523.998 154.16ZM546.713 137.04C548.078 137.04 549.273 137.307 550.297 137.84C551.342 138.352 552.153 139.141 552.729 140.208C553.326 141.275 553.625 142.619 553.625 144.24V154H551.353V144.464C551.353 142.693 550.905 141.36 550.009 140.464C549.134 139.547 547.897 139.088 546.297 139.088C545.102 139.088 544.057 139.333 543.161 139.824C542.286 140.293 541.603 140.987 541.113 141.904C540.643 142.8 540.409 143.888 540.409 145.168V154H538.137V137.2H540.313V141.808L539.961 140.944C540.494 139.728 541.347 138.779 542.521 138.096C543.694 137.392 545.091 137.04 546.713 137.04ZM569.929 149.648L569.993 146.736L580.457 137.2H583.241L575.849 144.272L574.569 145.36L569.929 149.648ZM568.137 154V130.256H570.409V154H568.137ZM581.161 154L574.153 145.264L575.625 143.504L583.945 154H581.161ZM597.571 154V150.288L597.475 149.68V143.472C597.475 142.043 597.07 140.944 596.259 140.176C595.47 139.408 594.286 139.024 592.707 139.024C591.619 139.024 590.584 139.205 589.603 139.568C588.622 139.931 587.79 140.411 587.107 141.008L586.083 139.312C586.936 138.587 587.96 138.032 589.155 137.648C590.35 137.243 591.608 137.04 592.931 137.04C595.107 137.04 596.782 137.584 597.955 138.672C599.15 139.739 599.747 141.371 599.747 143.568V154H597.571ZM591.779 154.16C590.52 154.16 589.422 153.957 588.483 153.552C587.566 153.125 586.862 152.549 586.371 151.824C585.88 151.077 585.635 150.224 585.635 149.264C585.635 148.389 585.838 147.6 586.243 146.896C586.67 146.171 587.352 145.595 588.291 145.168C589.251 144.72 590.531 144.496 592.131 144.496H597.923V146.192H592.195C590.574 146.192 589.443 146.48 588.803 147.056C588.184 147.632 587.875 148.347 587.875 149.2C587.875 150.16 588.248 150.928 588.995 151.504C589.742 152.08 590.787 152.368 592.131 152.368C593.411 152.368 594.51 152.08 595.427 151.504C596.366 150.907 597.048 150.053 597.475 148.944L597.987 150.512C597.56 151.621 596.814 152.507 595.747 153.168C594.702 153.829 593.379 154.16 591.779 154.16ZM626.91 137.04C628.275 137.04 629.459 137.307 630.462 137.84C631.486 138.352 632.275 139.141 632.83 140.208C633.406 141.275 633.694 142.619 633.694 144.24V154H631.422V144.464C631.422 142.693 630.995 141.36 630.142 140.464C629.31 139.547 628.126 139.088 626.59 139.088C625.438 139.088 624.435 139.333 623.582 139.824C622.75 140.293 622.099 140.987 621.63 141.904C621.182 142.8 620.958 143.888 620.958 145.168V154H618.686V144.464C618.686 142.693 618.259 141.36 617.406 140.464C616.553 139.547 615.358 139.088 613.822 139.088C612.691 139.088 611.699 139.333 610.846 139.824C609.993 140.293 609.331 140.987 608.862 141.904C608.414 142.8 608.19 143.888 608.19 145.168V154H605.918V137.2H608.094V141.744L607.742 140.944C608.254 139.728 609.075 138.779 610.206 138.096C611.358 137.392 612.713 137.04 614.27 137.04C615.913 137.04 617.31 137.456 618.462 138.288C619.614 139.099 620.361 140.325 620.702 141.968L619.806 141.616C620.297 140.251 621.161 139.152 622.398 138.32C623.657 137.467 625.161 137.04 626.91 137.04ZM639.856 154V137.2H642.128V154H639.856ZM641.008 133.488C640.538 133.488 640.144 133.328 639.824 133.008C639.504 132.688 639.344 132.304 639.344 131.856C639.344 131.408 639.504 131.035 639.824 130.736C640.144 130.416 640.538 130.256 641.008 130.256C641.477 130.256 641.872 130.405 642.192 130.704C642.512 131.003 642.672 131.376 642.672 131.824C642.672 132.293 642.512 132.688 642.192 133.008C641.893 133.328 641.498 133.488 641.008 133.488ZM80.744 176.04C82.1093 176.04 83.304 176.307 84.328 176.84C85.3733 177.352 86.184 178.141 86.76 179.208C87.3573 180.275 87.656 181.619 87.656 183.24V193H85.384V183.464C85.384 181.693 84.936 180.36 84.04 179.464C83.1653 178.547 81.928 178.088 80.328 178.088C79.1333 178.088 78.088 178.333 77.192 178.824C76.3173 179.293 75.6347 179.987 75.144 180.904C74.6747 181.8 74.44 182.888 74.44 184.168V193H72.168V169.256H74.44V180.808L73.992 179.944C74.5253 178.728 75.3787 177.779 76.552 177.096C77.7253 176.392 79.1227 176.04 80.744 176.04ZM104.321 193V189.288L104.225 188.68V182.472C104.225 181.043 103.82 179.944 103.009 179.176C102.22 178.408 101.036 178.024 99.457 178.024C98.369 178.024 97.3343 178.205 96.353 178.568C95.3717 178.931 94.5397 179.411 93.857 180.008L92.833 178.312C93.6863 177.587 94.7103 177.032 95.905 176.648C97.0997 176.243 98.3583 176.04 99.681 176.04C101.857 176.04 103.532 176.584 104.705 177.672C105.9 178.739 106.497 180.371 106.497 182.568V193H104.321ZM98.529 193.16C97.2703 193.16 96.1717 192.957 95.233 192.552C94.3157 192.125 93.6117 191.549 93.121 190.824C92.6303 190.077 92.385 189.224 92.385 188.264C92.385 187.389 92.5877 186.6 92.993 185.896C93.4197 185.171 94.1023 184.595 95.041 184.168C96.001 183.72 97.281 183.496 98.881 183.496H104.673V185.192H98.945C97.3237 185.192 96.193 185.48 95.553 186.056C94.9343 186.632 94.625 187.347 94.625 188.2C94.625 189.16 94.9983 189.928 95.745 190.504C96.4917 191.08 97.537 191.368 98.881 191.368C100.161 191.368 101.26 191.08 102.177 190.504C103.116 189.907 103.798 189.053 104.225 187.944L104.737 189.512C104.31 190.621 103.564 191.507 102.497 192.168C101.452 192.829 100.129 193.16 98.529 193.16ZM121.244 176.04C122.609 176.04 123.804 176.307 124.828 176.84C125.873 177.352 126.684 178.141 127.26 179.208C127.857 180.275 128.156 181.619 128.156 183.24V193H125.884V183.464C125.884 181.693 125.436 180.36 124.54 179.464C123.665 178.547 122.428 178.088 120.828 178.088C119.633 178.088 118.588 178.333 117.692 178.824C116.817 179.293 116.135 179.987 115.644 180.904C115.175 181.8 114.94 182.888 114.94 184.168V193H112.668V176.2H114.844V180.808L114.492 179.944C115.025 178.728 115.879 177.779 117.052 177.096C118.225 176.392 119.623 176.04 121.244 176.04ZM134.109 199.368C133.319 199.368 132.562 199.24 131.837 198.984C131.133 198.728 130.524 198.344 130.012 197.832L131.069 196.136C131.495 196.541 131.954 196.851 132.445 197.064C132.957 197.299 133.522 197.416 134.141 197.416C134.887 197.416 135.527 197.203 136.061 196.776C136.615 196.371 137.138 195.645 137.629 194.6L138.717 192.136L138.973 191.784L145.885 176.2H148.125L139.709 195.016C139.239 196.104 138.717 196.968 138.141 197.608C137.586 198.248 136.978 198.696 136.317 198.952C135.655 199.229 134.919 199.368 134.109 199.368ZM138.589 193.48L130.845 176.2H133.213L140.061 191.624L138.589 193.48ZM161.352 193V189.288L161.256 188.68V182.472C161.256 181.043 160.851 179.944 160.04 179.176C159.251 178.408 158.067 178.024 156.488 178.024C155.4 178.024 154.366 178.205 153.384 178.568C152.403 178.931 151.571 179.411 150.888 180.008L149.864 178.312C150.718 177.587 151.742 177.032 152.936 176.648C154.131 176.243 155.39 176.04 156.712 176.04C158.888 176.04 160.563 176.584 161.736 177.672C162.931 178.739 163.528 180.371 163.528 182.568V193H161.352ZM155.56 193.16C154.302 193.16 153.203 192.957 152.264 192.552C151.347 192.125 150.643 191.549 150.152 190.824C149.662 190.077 149.416 189.224 149.416 188.264C149.416 187.389 149.619 186.6 150.024 185.896C150.451 185.171 151.134 184.595 152.072 184.168C153.032 183.72 154.312 183.496 155.912 183.496H161.704V185.192H155.976C154.355 185.192 153.224 185.48 152.584 186.056C151.966 186.632 151.656 187.347 151.656 188.2C151.656 189.16 152.03 189.928 152.776 190.504C153.523 191.08 154.568 191.368 155.912 191.368C157.192 191.368 158.291 191.08 159.208 190.504C160.147 189.907 160.83 189.053 161.256 187.944L161.768 189.512C161.342 190.621 160.595 191.507 159.528 192.168C158.483 192.829 157.16 193.16 155.56 193.16ZM185.018 193.16C183.589 193.16 182.341 192.893 181.274 192.36C180.208 191.827 179.376 191.027 178.778 189.96C178.202 188.893 177.914 187.56 177.914 185.96V176.2H180.186V185.704C180.186 187.496 180.624 188.851 181.498 189.768C182.394 190.664 183.642 191.112 185.242 191.112C186.416 191.112 187.429 190.877 188.282 190.408C189.157 189.917 189.818 189.213 190.266 188.296C190.736 187.379 190.97 186.28 190.97 185V176.2H193.242V193H191.066V188.392L191.418 189.224C190.885 190.461 190.053 191.432 188.922 192.136C187.813 192.819 186.512 193.16 185.018 193.16ZM208.15 176.04C209.516 176.04 210.71 176.307 211.734 176.84C212.78 177.352 213.59 178.141 214.166 179.208C214.764 180.275 215.062 181.619 215.062 183.24V193H212.79V183.464C212.79 181.693 212.342 180.36 211.446 179.464C210.572 178.547 209.334 178.088 207.734 178.088C206.54 178.088 205.494 178.333 204.598 178.824C203.724 179.293 203.041 179.987 202.55 180.904C202.081 181.8 201.846 182.888 201.846 184.168V193H199.574V176.2H201.75V180.808L201.398 179.944C201.932 178.728 202.785 177.779 203.958 177.096C205.132 176.392 206.529 176.04 208.15 176.04ZM226.511 193.16C224.933 193.16 223.717 192.733 222.863 191.88C222.01 191.027 221.583 189.821 221.583 188.264V172.488H223.855V188.136C223.855 189.117 224.101 189.875 224.591 190.408C225.103 190.941 225.829 191.208 226.767 191.208C227.77 191.208 228.602 190.92 229.263 190.344L230.063 191.976C229.615 192.381 229.071 192.68 228.431 192.872C227.813 193.064 227.173 193.16 226.511 193.16ZM218.575 178.088V176.2H228.975V178.088H218.575ZM241.143 193.16C239.714 193.16 238.466 192.893 237.399 192.36C236.333 191.827 235.501 191.027 234.903 189.96C234.327 188.893 234.039 187.56 234.039 185.96V176.2H236.311V185.704C236.311 187.496 236.749 188.851 237.623 189.768C238.519 190.664 239.767 191.112 241.367 191.112C242.541 191.112 243.554 190.877 244.407 190.408C245.282 189.917 245.943 189.213 246.391 188.296C246.861 187.379 247.095 186.28 247.095 185V176.2H249.367V193H247.191V188.392L247.543 189.224C247.01 190.461 246.178 191.432 245.047 192.136C243.938 192.819 242.637 193.16 241.143 193.16ZM257.491 188.648L257.555 185.736L268.019 176.2H270.803L263.411 183.272L262.131 184.36L257.491 188.648ZM255.699 193V169.256H257.971V193H255.699ZM268.723 193L261.715 184.264L263.187 182.504L271.507 193H268.723ZM285.085 188.648L285.149 185.736L295.613 176.2H298.397L291.005 183.272L289.725 184.36L285.085 188.648ZM283.293 193V169.256H285.565V193H283.293ZM296.317 193L289.309 184.264L290.781 182.504L299.101 193H296.317ZM312.727 193V189.288L312.631 188.68V182.472C312.631 181.043 312.226 179.944 311.415 179.176C310.626 178.408 309.442 178.024 307.863 178.024C306.775 178.024 305.741 178.205 304.759 178.568C303.778 178.931 302.946 179.411 302.263 180.008L301.239 178.312C302.093 177.587 303.117 177.032 304.311 176.648C305.506 176.243 306.765 176.04 308.087 176.04C310.263 176.04 311.938 176.584 313.111 177.672C314.306 178.739 314.903 180.371 314.903 182.568V193H312.727ZM306.935 193.16C305.677 193.16 304.578 192.957 303.639 192.552C302.722 192.125 302.018 191.549 301.527 190.824C301.037 190.077 300.791 189.224 300.791 188.264C300.791 187.389 300.994 186.6 301.399 185.896C301.826 185.171 302.509 184.595 303.447 184.168C304.407 183.72 305.687 183.496 307.287 183.496H313.079V185.192H307.351C305.73 185.192 304.599 185.48 303.959 186.056C303.341 186.632 303.031 187.347 303.031 188.2C303.031 189.16 303.405 189.928 304.151 190.504C304.898 191.08 305.943 191.368 307.287 191.368C308.567 191.368 309.666 191.08 310.583 190.504C311.522 189.907 312.205 189.053 312.631 187.944L313.143 189.512C312.717 190.621 311.97 191.507 310.903 192.168C309.858 192.829 308.535 193.16 306.935 193.16ZM342.066 176.04C343.432 176.04 344.616 176.307 345.618 176.84C346.642 177.352 347.432 178.141 347.986 179.208C348.562 180.275 348.85 181.619 348.85 183.24V193H346.578V183.464C346.578 181.693 346.152 180.36 345.298 179.464C344.466 178.547 343.282 178.088 341.746 178.088C340.594 178.088 339.592 178.333 338.738 178.824C337.906 179.293 337.256 179.987 336.786 180.904C336.338 181.8 336.114 182.888 336.114 184.168V193H333.842V183.464C333.842 181.693 333.416 180.36 332.562 179.464C331.709 178.547 330.514 178.088 328.978 178.088C327.848 178.088 326.856 178.333 326.002 178.824C325.149 179.293 324.488 179.987 324.018 180.904C323.57 181.8 323.346 182.888 323.346 184.168V193H321.074V176.2H323.25V180.744L322.898 179.944C323.41 178.728 324.232 177.779 325.362 177.096C326.514 176.392 327.869 176.04 329.426 176.04C331.069 176.04 332.466 176.456 333.618 177.288C334.77 178.099 335.517 179.325 335.858 180.968L334.962 180.616C335.453 179.251 336.317 178.152 337.554 177.32C338.813 176.467 340.317 176.04 342.066 176.04ZM361.956 193.16C360.526 193.16 359.278 192.893 358.212 192.36C357.145 191.827 356.313 191.027 355.716 189.96C355.14 188.893 354.852 187.56 354.852 185.96V176.2H357.124V185.704C357.124 187.496 357.561 188.851 358.436 189.768C359.332 190.664 360.58 191.112 362.18 191.112C363.353 191.112 364.366 190.877 365.22 190.408C366.094 189.917 366.756 189.213 367.204 188.296C367.673 187.379 367.908 186.28 367.908 185V176.2H370.18V193H368.004V188.392L368.356 189.224C367.822 190.461 366.99 191.432 365.86 192.136C364.75 192.819 363.449 193.16 361.956 193.16ZM376.736 193.16C376.266 193.16 375.861 192.989 375.52 192.648C375.2 192.307 375.04 191.891 375.04 191.4C375.04 190.888 375.2 190.472 375.52 190.152C375.861 189.832 376.266 189.672 376.736 189.672C377.205 189.672 377.6 189.832 377.92 190.152C378.261 190.472 378.432 190.888 378.432 191.4C378.432 191.891 378.261 192.307 377.92 192.648C377.6 192.989 377.205 193.16 376.736 193.16Z" fill="#8BD0ED"/>
<rect x="780" y="85" width="371" height="99" rx="49.5" fill="#FF6000"/>
<path d="M877.593 139.88L877.305 133.896L888.025 122.6H893.785L884.121 133L881.241 136.072L877.593 139.88ZM872.953 145V122.6H878.105V145H872.953ZM888.281 145L880.313 135.24L883.705 131.56L894.329 145H888.281ZM906.44 127.528C907.805 127.528 909.021 127.805 910.088 128.36C911.176 128.893 912.029 129.725 912.648 130.856C913.267 131.965 913.576 133.395 913.576 135.144V145H908.584V135.912C908.584 134.525 908.275 133.501 907.656 132.84C907.059 132.179 906.205 131.848 905.096 131.848C904.307 131.848 903.592 132.019 902.952 132.36C902.333 132.68 901.843 133.181 901.48 133.864C901.139 134.547 900.968 135.421 900.968 136.488V145H895.976V127.784H900.744V132.552L899.848 131.112C900.467 129.96 901.352 129.075 902.504 128.456C903.656 127.837 904.968 127.528 906.44 127.528ZM926.418 145.256C924.583 145.256 922.951 144.872 921.522 144.104C920.114 143.336 918.994 142.291 918.162 140.968C917.351 139.624 916.946 138.099 916.946 136.392C916.946 134.664 917.351 133.139 918.162 131.816C918.994 130.472 920.114 129.427 921.522 128.68C922.951 127.912 924.583 127.528 926.418 127.528C928.231 127.528 929.853 127.912 931.282 128.68C932.711 129.427 933.831 130.461 934.642 131.784C935.453 133.107 935.858 134.643 935.858 136.392C935.858 138.099 935.453 139.624 934.642 140.968C933.831 142.291 932.711 143.336 931.282 144.104C929.853 144.872 928.231 145.256 926.418 145.256ZM926.418 141.16C927.25 141.16 927.997 140.968 928.658 140.584C929.319 140.2 929.842 139.656 930.226 138.952C930.61 138.227 930.802 137.373 930.802 136.392C930.802 135.389 930.61 134.536 930.226 133.832C929.842 133.128 929.319 132.584 928.658 132.2C927.997 131.816 927.25 131.624 926.418 131.624C925.586 131.624 924.839 131.816 924.178 132.2C923.517 132.584 922.983 133.128 922.578 133.832C922.194 134.536 922.002 135.389 922.002 136.392C922.002 137.373 922.194 138.227 922.578 138.952C922.983 139.656 923.517 140.2 924.178 140.584C924.839 140.968 925.586 141.16 926.418 141.16ZM942.662 145L936.454 127.784H941.158L946.31 142.6H944.07L949.446 127.784H953.67L958.886 142.6H956.646L961.958 127.784H966.374L960.134 145H955.302L950.726 132.296H952.198L947.462 145H942.662ZM978.109 145V122.6H982.397L991.933 138.408H989.661L999.037 122.6H1003.29L1003.36 145H998.493L998.461 130.056H999.357L991.869 142.632H989.533L981.885 130.056H982.973V145H978.109ZM1016.51 145.256C1014.68 145.256 1013.04 144.872 1011.62 144.104C1010.21 143.336 1009.09 142.291 1008.26 140.968C1007.44 139.624 1007.04 138.099 1007.04 136.392C1007.04 134.664 1007.44 133.139 1008.26 131.816C1009.09 130.472 1010.21 129.427 1011.62 128.68C1013.04 127.912 1014.68 127.528 1016.51 127.528C1018.32 127.528 1019.95 127.912 1021.38 128.68C1022.8 129.427 1023.92 130.461 1024.74 131.784C1025.55 133.107 1025.95 134.643 1025.95 136.392C1025.95 138.099 1025.55 139.624 1024.74 140.968C1023.92 142.291 1022.8 143.336 1021.38 144.104C1019.95 144.872 1018.32 145.256 1016.51 145.256ZM1016.51 141.16C1017.34 141.16 1018.09 140.968 1018.75 140.584C1019.41 140.2 1019.94 139.656 1020.32 138.952C1020.7 138.227 1020.9 137.373 1020.9 136.392C1020.9 135.389 1020.7 134.536 1020.32 133.832C1019.94 133.128 1019.41 132.584 1018.75 132.2C1018.09 131.816 1017.34 131.624 1016.51 131.624C1015.68 131.624 1014.93 131.816 1014.27 132.2C1013.61 132.584 1013.08 133.128 1012.67 133.832C1012.29 134.536 1012.1 135.389 1012.1 136.392C1012.1 137.373 1012.29 138.227 1012.67 138.952C1013.08 139.656 1013.61 140.2 1014.27 140.584C1014.93 140.968 1015.68 141.16 1016.51 141.16ZM1029.29 145V127.784H1034.06V132.648L1033.38 131.24C1033.9 130.024 1034.72 129.107 1035.85 128.488C1036.98 127.848 1038.36 127.528 1039.98 127.528V132.136C1039.76 132.115 1039.57 132.104 1039.4 132.104C1039.23 132.083 1039.05 132.072 1038.86 132.072C1037.49 132.072 1036.38 132.467 1035.53 133.256C1034.7 134.024 1034.28 135.229 1034.28 136.872V145H1029.29ZM1051.36 145.256C1049.4 145.256 1047.67 144.872 1046.18 144.104C1044.71 143.336 1043.57 142.291 1042.76 140.968C1041.94 139.624 1041.54 138.099 1041.54 136.392C1041.54 134.664 1041.93 133.139 1042.72 131.816C1043.53 130.472 1044.63 129.427 1046.02 128.68C1047.41 127.912 1048.97 127.528 1050.72 127.528C1052.41 127.528 1053.92 127.891 1055.27 128.616C1056.63 129.32 1057.71 130.344 1058.5 131.688C1059.29 133.011 1059.68 134.6 1059.68 136.456C1059.68 136.648 1059.67 136.872 1059.65 137.128C1059.63 137.363 1059.61 137.587 1059.59 137.8H1045.6V134.888H1056.96L1055.04 135.752C1055.04 134.856 1054.86 134.077 1054.5 133.416C1054.14 132.755 1053.64 132.243 1053 131.88C1052.36 131.496 1051.61 131.304 1050.76 131.304C1049.9 131.304 1049.14 131.496 1048.48 131.88C1047.84 132.243 1047.34 132.765 1046.98 133.448C1046.62 134.109 1046.44 134.899 1046.44 135.816V136.584C1046.44 137.523 1046.64 138.355 1047.04 139.08C1047.47 139.784 1048.06 140.328 1048.8 140.712C1049.57 141.075 1050.47 141.256 1051.49 141.256C1052.41 141.256 1053.21 141.117 1053.89 140.84C1054.6 140.563 1055.24 140.147 1055.81 139.592L1058.47 142.472C1057.68 143.368 1056.69 144.061 1055.49 144.552C1054.3 145.021 1052.92 145.256 1051.36 145.256Z" fill="white"/>
</svg>
