<!DOCTYPE svg PUBLIC "-//W3C//DTD SVG 1.1//EN" "http://www.w3.org/Graphics/SVG/1.1/DTD/svg11.dtd">
<!-- Uploaded to: SVG Repo, www.svgrepo.com, Transformed by: SVG Repo Mixer Tools -->
<svg height="800px" width="800px" version="1.1" id="Layer_1" xmlns="http://www.w3.org/2000/svg" xmlns:xlink="http://www.w3.org/1999/xlink" viewBox="-51.2 -51.2 614.40 614.40" xml:space="preserve" fill="#000000" stroke="#000000" stroke-width="0.00512" transform="matrix(1, 0, 0, 1, 0, 0)rotate(0)">
<g id="SVGRepo_bgCarrier" stroke-width="0"/>
<g id="SVGRepo_tracerCarrier" stroke-linecap="round" stroke-linejoin="round"/>
<g id="SVGRepo_iconCarrier"> <path style="fill:#981700;" d="M359.795,46.748c0,4.917-3.974,8.904-8.877,8.904H224.943c-4.902,0-8.877-3.987-8.877-8.904 s3.974-8.904,8.877-8.904H350.92C355.821,37.843,359.795,41.83,359.795,46.748z"/> <path style="fill:#FF4328;" d="M425.772,355.514c-1.096,0.447-2.228,0.66-3.344,0.66c-3.503,0-6.822-2.094-8.224-5.55 l-38.485-94.848c-14.799-36.471-31.363-59.862-52.061-72.269v63.55H188.34v-63.55c-20.698,12.407-37.264,35.799-52.067,72.269 l-38.478,94.846c-1.848,4.555-7.028,6.744-11.567,4.892c-4.54-1.854-6.723-7.049-4.875-11.605l38.479-94.848 c17.819-43.897,46.496-94.284,110.642-94.284h51.048c64.156,0,92.829,50.387,110.642,94.284l38.485,94.848 C432.494,348.465,430.312,353.661,425.772,355.514z"/> <path style="fill:#391B10;" d="M230.867,389.565v113.53c0,4.917-3.974,8.904-8.877,8.904c-0.073,0-0.147-0.001-0.219-0.002h-37.518 c-4.902,0-8.877-3.987-8.877-8.904s3.974-8.904,8.877-8.904h28.861V389.565c0-4.917,3.974-8.904,8.877-8.904 S230.867,384.648,230.867,389.565z M327.739,494.189h-28.861V389.565c0-4.917-3.974-8.904-8.877-8.904s-8.877,3.987-8.877,8.904 v113.53c0,4.917,3.974,8.904,8.877,8.904c0.073,0,0.147-0.001,0.219-0.002h37.517c4.902,0,8.877-3.987,8.877-8.904 S332.642,494.189,327.739,494.189z"/> <path style="fill:#663310;" d="M334.606,456.348H177.387l10.952-232.793v-70.355c0-4.917,3.974-8.904,8.877-8.904 s8.877,3.987,8.877,8.904v70.355h99.814v-70.355c0-4.917,3.974-8.904,8.877-8.904s8.877,3.987,8.877,8.904v70.47L334.606,456.348z"/> <path style="fill:#DDC98B;" d="M234.27,314.935c0,10.514,3.348,18.235,6.497,20.163c4.185,2.561,5.508,8.041,2.955,12.239 c-1.672,2.75-4.594,4.268-7.586,4.268c-1.575,0-3.17-0.421-4.614-1.303c-9.395-5.749-15.004-18.97-15.004-35.366 c0-16.397,5.609-29.619,15.004-35.369c4.185-2.562,9.647-1.232,12.2,2.965c2.552,4.198,1.23,9.678-2.955,12.239 C237.617,296.696,234.27,304.418,234.27,314.935z M277.691,279.565c-4.186-2.562-9.648-1.234-12.2,2.964 c-2.553,4.197-1.231,9.678,2.954,12.239c3.149,1.928,6.496,9.65,6.496,20.166c0,10.514-3.347,18.236-6.496,20.163 c-4.185,2.561-5.507,8.041-2.955,12.239c1.673,2.75,4.594,4.268,7.586,4.268c1.575,0,3.171-0.421,4.614-1.304 c9.393-5.749,15.002-18.97,15.003-35.366C292.693,298.537,287.085,285.315,277.691,279.565z"/> <path style="fill:#CF8F3D;" d="M255.997,0c29.18,0,52.835,23.657,52.835,52.837c0,29.182-23.656,52.837-52.835,52.837 s-52.835-23.654-52.835-52.837C203.161,23.657,226.816,0,255.997,0L255.997,0z"/> <path style="fill:#FF4328;" d="M203.238,55.652c-0.049-0.933-0.076-1.87-0.076-2.815C203.161,23.657,226.816,0,255.997,0 s52.835,23.657,52.835,52.837c0,0.945-0.027,1.882-0.076,2.815H203.238z"/> </g>
</svg>